<?xml version="1.0" encoding="UTF-8" standalone="no"?>
<!-- Created with Inkscape (http://www.inkscape.org/) -->

<svg
   xmlns:dc="http://purl.org/dc/elements/1.1/"
   xmlns:cc="http://creativecommons.org/ns#"
   xmlns:rdf="http://www.w3.org/1999/02/22-rdf-syntax-ns#"
   xmlns:svg="http://www.w3.org/2000/svg"
   xmlns="http://www.w3.org/2000/svg"
   xmlns:sodipodi="http://sodipodi.sourceforge.net/DTD/sodipodi-0.dtd"
   xmlns:inkscape="http://www.inkscape.org/namespaces/inkscape"
   width="744.09448819"
   height="1052.3622047"
   id="svg2"
   version="1.1"
   inkscape:version="0.48.4 r9939"
   sodipodi:docname="bbdefn.svg">
  <sodipodi:namedview
     id="base"
     pagecolor="#ffffff"
     bordercolor="#666666"
     borderopacity="1.0"
     inkscape:pageopacity="0.0"
     inkscape:pageshadow="2"
     inkscape:zoom="2.1468325"
     inkscape:cx="233.80622"
     inkscape:cy="851.57042"
     inkscape:document-units="px"
     inkscape:current-layer="layer3"
     showgrid="true"
     showguides="true"
     inkscape:snap-grids="true"
     inkscape:window-width="1855"
     inkscape:window-height="1056"
     inkscape:window-x="65"
     inkscape:window-y="24"
     inkscape:window-maximized="1"
     inkscape:guide-bbox="true">
    <inkscape:grid
       snapvisiblegridlinesonly="true"
       enabled="true"
       visible="true"
       empspacing="5"
       id="grid3004"
       type="xygrid" />
    <sodipodi:guide
       id="guide3014"
       orientation="0,744.09448"
       position="0,0" />
    <sodipodi:guide
       id="guide3016"
       orientation="-1052.3622,0"
       position="744.09448,0" />
    <sodipodi:guide
       id="guide3018"
       orientation="0,-744.09448"
       position="744.09448,1052.3622" />
    <sodipodi:guide
       id="guide3020"
       orientation="1052.3622,0"
       position="0,1052.3622" />
  </sodipodi:namedview>
  <defs
     id="defs4">
    <inkscape:path-effect
       fuse_tolerance="0"
       vertical_pattern="false"
       prop_units="false"
       tang_offset="0"
       normal_offset="0"
       spacing="0"
       scale_y_rel="false"
       prop_scale="1"
       copytype="single_stretched"
       pattern="m 148,130 0,10 10,-5 z"
       is_visible="true"
       id="path-effect3517"
       effect="skeletal" />
    <inkscape:path-effect
       effect="skeletal"
       id="path-effect3469"
       is_visible="true"
       pattern="m -66,-50 0,10 10,-5 z"
       copytype="single_stretched"
       prop_scale="1"
       scale_y_rel="false"
       spacing="0"
       normal_offset="0"
       tang_offset="0"
       prop_units="false"
       vertical_pattern="false"
       fuse_tolerance="0" />
    <inkscape:path-effect
       fuse_tolerance="0"
       vertical_pattern="false"
       prop_units="false"
       tang_offset="0"
       normal_offset="0"
       spacing="0"
       scale_y_rel="false"
       prop_scale="1"
       copytype="single_stretched"
       pattern="M 0,0 0,10 10,5 z"
       is_visible="true"
       id="path-effect8308"
       effect="skeletal" />
    <marker
       style="overflow:visible;"
       id="Arrow1Mend"
       refX="0.0"
       refY="0.0"
       orient="auto"
       inkscape:stockid="Arrow1Mend">
      <path
         transform="scale(0.4) rotate(180) translate(10,0)"
         style="fill-rule:evenodd;stroke:#000000;stroke-width:1.0pt;"
         d="M 0.0,0.0 L 5.0,-5.0 L -12.5,0.0 L 5.0,5.0 L 0.0,0.0 z "
         id="path4402" />
    </marker>
    <inkscape:path-effect
       fuse_tolerance="0"
       vertical_pattern="false"
       prop_units="false"
       tang_offset="0"
       normal_offset="0"
       spacing="0"
       scale_y_rel="false"
       prop_scale="1"
       copytype="single_stretched"
       pattern="M 0,0 0,10 10,5 z"
       is_visible="true"
       id="path-effect8041"
       effect="skeletal" />
    <marker
       style="overflow:visible"
       id="Tail"
       refX="0.0"
       refY="0.0"
       orient="auto"
       inkscape:stockid="Tail">
      <g
         transform="scale(-1.2)"
         id="g4429">
        <path
           style="fill:none;fill-rule:evenodd;stroke:#000000;stroke-width:0.8;stroke-linecap:round"
           d="M -3.8048674,-3.9585227 L 0.54352094,0"
           id="path4431" />
        <path
           style="fill:none;fill-rule:evenodd;stroke:#000000;stroke-width:0.8;stroke-linecap:round"
           d="M -1.2866832,-3.9585227 L 3.0617053,0"
           id="path4433" />
        <path
           style="fill:none;fill-rule:evenodd;stroke:#000000;stroke-width:0.8;stroke-linecap:round"
           d="M 1.3053582,-3.9585227 L 5.6537466,0"
           id="path4435" />
        <path
           style="fill:none;fill-rule:evenodd;stroke:#000000;stroke-width:0.8;stroke-linecap:round"
           d="M -3.8048674,4.1775838 L 0.54352094,0.21974226"
           id="path4437" />
        <path
           style="fill:none;fill-rule:evenodd;stroke:#000000;stroke-width:0.8;stroke-linecap:round"
           d="M -1.2866832,4.1775838 L 3.0617053,0.21974226"
           id="path4439" />
        <path
           style="fill:none;fill-rule:evenodd;stroke:#000000;stroke-width:0.8;stroke-linecap:round"
           d="M 1.3053582,4.1775838 L 5.6537466,0.21974226"
           id="path4441" />
      </g>
    </marker>
    <marker
       style="overflow:visible;"
       id="Arrow1Lend"
       refX="0.0"
       refY="0.0"
       orient="auto"
       inkscape:stockid="Arrow1Lend">
      <path
         transform="scale(0.8) rotate(180) translate(12.5,0)"
         style="fill-rule:evenodd;stroke:#000000;stroke-width:1.0pt;"
         d="M 0.0,0.0 L 5.0,-5.0 L -12.5,0.0 L 5.0,5.0 L 0.0,0.0 z "
         id="path4396" />
    </marker>
    <inkscape:path-effect
       fuse_tolerance="0"
       vertical_pattern="false"
       prop_units="false"
       tang_offset="0"
       normal_offset="0"
       spacing="0"
       scale_y_rel="false"
       prop_scale="1"
       copytype="single_stretched"
       pattern="m -0.53033009,0.53033009 0,9.99999991 9.99999999,-4.9999999 z"
       is_visible="true"
       id="path-effect5091"
       effect="skeletal" />
    <inkscape:path-effect
       is_visible="true"
       id="path-effect5087"
       effect="spiro" />
    <inkscape:path-effect
       is_visible="true"
       id="path-effect5083"
       effect="spiro" />
    <inkscape:path-effect
       is_visible="true"
       id="path-effect5079"
       effect="spiro" />
    <inkscape:path-effect
       is_visible="true"
       id="path-effect5075"
       effect="spiro" />
    <inkscape:path-effect
       is_visible="true"
       id="path-effect5071"
       effect="spiro" />
    <inkscape:path-effect
       is_visible="true"
       id="path-effect5067"
       effect="spiro" />
    <inkscape:path-effect
       fuse_tolerance="0"
       vertical_pattern="false"
       prop_units="false"
       tang_offset="0"
       normal_offset="0"
       spacing="0"
       scale_y_rel="false"
       prop_scale="1"
       copytype="single_stretched"
       pattern="M 0,0 0,10 10,5 z"
       is_visible="true"
       id="path-effect3080"
       effect="skeletal" />
    <inkscape:path-effect
       effect="skeletal"
       id="path-effect3076"
       is_visible="true"
       pattern="m 142,130 0,10 10,-5 z"
       copytype="single_stretched"
       prop_scale="1"
       scale_y_rel="false"
       spacing="0"
       normal_offset="0"
       tang_offset="0"
       prop_units="false"
       vertical_pattern="false"
       fuse_tolerance="0" />
    <inkscape:path-effect
       fuse_tolerance="0"
       vertical_pattern="false"
       prop_units="false"
       tang_offset="0"
       normal_offset="0"
       spacing="0"
       scale_y_rel="false"
       prop_scale="1"
       copytype="single_stretched"
       pattern="m -72,-50 0,10 10,-5 z"
       is_visible="true"
       id="path-effect3072"
       effect="skeletal" />
  </defs>
  <metadata
     id="metadata7">
    <rdf:RDF>
      <cc:Work
         rdf:about="">
        <dc:format>image/svg+xml</dc:format>
        <dc:type
           rdf:resource="http://purl.org/dc/dcmitype/StillImage" />
        <dc:title></dc:title>
      </cc:Work>
    </rdf:RDF>
  </metadata>
  <g
     sodipodi:insensitive="true"
     style="display:inline;opacity:0"
     id="layer1"
     inkscape:groupmode="layer"
     inkscape:label="Grid">
    <path
       inkscape:connector-curvature="0"
       id="path3010"
       d="M 100,2.3621826 100,1052.3622"
       style="fill:none;stroke:#000000;stroke-width:1px;stroke-linecap:butt;stroke-linejoin:miter;stroke-opacity:1" />
    <path
       inkscape:connector-curvature="0"
       id="path3012"
       d="M 640,2.3621826 640,1052.3622"
       style="fill:none;stroke:#000000;stroke-width:1px;stroke-linecap:butt;stroke-linejoin:miter;stroke-opacity:1" />
    <path
       inkscape:connector-curvature="0"
       id="path3022"
       d="m 0,912.36218 750,0"
       style="fill:none;stroke:#000000;stroke-width:1px;stroke-linecap:butt;stroke-linejoin:miter;stroke-opacity:1" />
    <path
       inkscape:connector-curvature="0"
       id="path3024"
       d="m 0,92.362183 750,0"
       style="fill:none;stroke:#000000;stroke-width:1px;stroke-linecap:butt;stroke-linejoin:miter;stroke-opacity:1" />
    <path
       inkscape:connector-curvature="0"
       id="path3030"
       d="m 100,312.36218 540,0"
       style="fill:none;stroke:#000000;stroke-width:1px;stroke-linecap:butt;stroke-linejoin:miter;stroke-opacity:1" />
    <path
       inkscape:connector-curvature="0"
       id="path3034"
       d="m 370,92.362183 0,219.999997"
       style="fill:none;stroke:#000000;stroke-width:1px;stroke-linecap:butt;stroke-linejoin:miter;stroke-opacity:1" />
  </g>
  <g
     style="opacity:1"
     inkscape:label="Draw area"
     id="layer3"
     inkscape:groupmode="layer">
    <text
       sodipodi:linespacing="125%"
       id="text3248"
       y="124.85645"
       x="-239.78503"
       style="font-size:20px;font-style:normal;font-variant:normal;font-weight:normal;font-stretch:normal;line-height:125%;letter-spacing:0px;word-spacing:0px;writing-mode:lr-tb;fill:#000000;fill-opacity:1;stroke:none;font-family:Serif;-inkscape-font-specification:Serif"
       xml:space="preserve"
       transform="matrix(0,-1,1,0,0,0)"><tspan
         y="124.85645"
         x="-239.78503"
         id="tspan3250"
         sodipodi:role="line">Energy</tspan></text>
    <path
       style="fill:#000000;fill-rule:evenodd;stroke:none"
       d="m 125.91203,119.78597 10,0 c -1.66642,-8.2822 -3.33284,-16.56441 -4.99926,-24.846609 -7.4e-4,-0.0012 -7.4e-4,-0.0012 -7.4e-4,-0.0012 0,0 0,0 -7.4e-4,0.0012 -1.66642,8.282199 -3.33284,16.564409 -4.99926,24.846609 z"
       id="path3254"
       inkscape:path-effect="#path-effect3469"
       inkscape:original-d="m 130.91203,119.78597 c 0,-24.84783 0,-24.84783 0,-24.84783"
       inkscape:connector-curvature="0" />
    <path
       style="fill:none;stroke:#000000;stroke-width:1px;stroke-linecap:butt;stroke-linejoin:miter;stroke-opacity:1"
       d="m 201,281.5282 0,-159.16746"
       id="path3258"
       inkscape:connector-curvature="0" />
    <text
       xml:space="preserve"
       style="font-size:20px;font-style:normal;font-variant:normal;font-weight:normal;font-stretch:normal;line-height:125%;letter-spacing:0px;word-spacing:0px;writing-mode:lr-tb;fill:#000000;fill-opacity:1;stroke:none;font-family:Serif;-inkscape-font-specification:Serif"
       x="201"
       y="306.36218"
       id="text3260"
       sodipodi:linespacing="125%"><tspan
         sodipodi:role="line"
         id="tspan3262"
         x="201"
         y="306.36218">Position</tspan></text>
    <path
       style="fill:none;stroke:#000000;stroke-width:1px;stroke-linecap:butt;stroke-linejoin:miter;stroke-opacity:1"
       d="m 151,287.36218 185,0"
       id="path3264"
       inkscape:connector-curvature="0" />
    <path
       style="fill:none;stroke:#000000;stroke-width:1px;stroke-linecap:butt;stroke-linejoin:miter;stroke-opacity:1"
       d="m 131,267.36218 0,-150"
       id="path3266"
       inkscape:connector-curvature="0" />
    <path
       inkscape:connector-curvature="0"
       inkscape:original-d="m 332.48824,287.36218 c 24.84783,0 24.84783,0 24.84783,0"
       inkscape:path-effect="#path-effect3517"
       id="path3268"
       d="m 332.48824,282.36218 0,10 c 8.2822,-1.66642 16.56441,-3.33284 24.84661,-4.99926 0.001,-7.4e-4 0.001,-7.4e-4 0.001,-7.4e-4 0,0 0,0 -0.001,-7.4e-4 -8.2822,-1.66642 -16.56441,-3.33284 -24.84661,-4.99926 z"
       style="fill:#000000;fill-rule:evenodd;stroke:none" />
    <text
       xml:space="preserve"
       style="font-size:20px;font-style:normal;font-variant:normal;font-weight:normal;font-stretch:normal;line-height:125%;letter-spacing:0px;word-spacing:0px;writing-mode:lr-tb;fill:#000000;fill-opacity:1;stroke:none;font-family:Serif;-inkscape-font-specification:Serif"
       x="320.16061"
       y="207.27458"
       id="text3290"
       sodipodi:linespacing="125%"><tspan
         sodipodi:role="line"
         id="tspan3292"
         x="320.16061"
         y="207.27458">E<tspan
   style="font-size:65.00091553%;baseline-shift:sub"
   id="tspan3294">f</tspan></tspan></text>
    <path
       style="fill:none;stroke:#000000;stroke-width:1px;stroke-linecap:butt;stroke-linejoin:miter;stroke-opacity:1"
       d="m 340,215.36218 -20,0"
       id="path3302"
       inkscape:connector-curvature="0" />
    <path
       style="fill:none;stroke:#000000;stroke-width:1px;stroke-linecap:butt;stroke-linejoin:miter;stroke-opacity:1"
       d="m 311,215.36218 -20,0"
       id="path3304"
       inkscape:connector-curvature="0" />
    <path
       style="fill:none;stroke:#000000;stroke-width:1px;stroke-linecap:butt;stroke-linejoin:miter;stroke-opacity:1"
       d="m 281,215.36218 -20,0"
       id="path3306"
       inkscape:connector-curvature="0" />
    <path
       style="fill:none;stroke:#000000;stroke-width:1px;stroke-linecap:butt;stroke-linejoin:miter;stroke-opacity:1"
       d="m 251,215.36218 -20,0"
       id="path3308"
       inkscape:connector-curvature="0" />
    <text
       xml:space="preserve"
       style="font-size:20px;font-style:normal;font-variant:normal;font-weight:normal;font-stretch:normal;line-height:125%;letter-spacing:0px;word-spacing:0px;writing-mode:lr-tb;fill:#000000;fill-opacity:1;stroke:none;font-family:Serif;-inkscape-font-specification:Serif"
       x="318.16061"
       y="267.2746"
       id="text3278"
       sodipodi:linespacing="125%"><tspan
         sodipodi:role="line"
         id="tspan3280"
         x="318.16061"
         y="267.2746">E<tspan
   style="font-size:65.00091553%;baseline-shift:sub"
   id="tspan3282">v</tspan></tspan></text>
    <text
       sodipodi:linespacing="125%"
       id="text3284"
       y="181.27458"
       x="320.16061"
       style="font-size:20px;font-style:normal;font-variant:normal;font-weight:normal;font-stretch:normal;line-height:125%;letter-spacing:0px;word-spacing:0px;writing-mode:lr-tb;fill:#000000;fill-opacity:1;stroke:none;font-family:Serif;-inkscape-font-specification:Serif"
       xml:space="preserve"><tspan
         y="181.27458"
         x="320.16061"
         id="tspan3286"
         sodipodi:role="line">E<tspan
   style="font-size:65.00091553%;baseline-shift:sub"
   id="tspan3288">c</tspan></tspan></text>
    <path
       sodipodi:nodetypes="ccc"
       inkscape:connector-curvature="0"
       id="path3336"
       d="m 339.82431,187.36218 -91.33178,0 c -30.05364,0.10406 -40.04264,-9.3436 -47.49253,-20"
       style="fill:none;stroke:#000000;stroke-width:1px;stroke-linecap:butt;stroke-linejoin:miter;stroke-opacity:1" />
    <path
       style="fill:none;stroke:#000000;stroke-width:1px;stroke-linecap:butt;stroke-linejoin:miter;stroke-opacity:1"
       d="m 339.82431,273.36218 -91.33178,0 c -30.05364,0.10406 -40.04264,-9.3436 -47.49253,-20"
       id="path3582"
       inkscape:connector-curvature="0"
       sodipodi:nodetypes="ccc" />
    <path
       inkscape:connector-curvature="0"
       id="path3595"
       d="m 201.43567,122.36218 -61.42388,0"
       style="fill:none;stroke:#000000;stroke-width:1;stroke-linecap:butt;stroke-linejoin:miter;stroke-opacity:1;stroke-miterlimit:4;stroke-dasharray:1,2;stroke-dashoffset:0" />
    <text
       xml:space="preserve"
       style="font-size:20px;font-style:normal;font-variant:normal;font-weight:normal;font-stretch:normal;line-height:125%;letter-spacing:0px;word-spacing:0px;writing-mode:lr-tb;fill:#000000;fill-opacity:1;stroke:none;font-family:Serif;-inkscape-font-specification:Serif"
       x="305"
       y="132.36218"
       id="text3597"
       sodipodi:linespacing="125%"><tspan
         sodipodi:role="line"
         id="tspan3599"
         x="305"
         y="132.36218">E<tspan
   id="tspan3601"
   style="font-size:65.00091553%;baseline-shift:sub">vac</tspan></tspan></text>
    <path
       inkscape:connector-curvature="0"
       id="path3622"
       d="m 231.91766,215.00252 0,-76.24043 0,-14.75048"
       style="fill:none;stroke:#000000;stroke-width:1px;stroke-linecap:butt;stroke-linejoin:miter;stroke-opacity:1;marker-end:url(#Arrow1Mend)" />
    <g
       id="g4750"
       transform="matrix(0.48168402,0,0,0.48168402,89.822471,-12.661864)">
      <g
         word-spacing="normal"
         letter-spacing="normal"
         font-size-adjust="none"
         font-stretch="normal"
         font-weight="normal"
         font-variant="normal"
         font-style="normal"
         stroke-miterlimit="10.433"
         xml:space="preserve"
         transform="matrix(1.0629921,0,0,-1.0629921,-186.02362,789.27165)"
         id="content"
         style="font-style:normal;font-variant:normal;font-weight:normal;font-stretch:normal;letter-spacing:normal;word-spacing:normal;text-anchor:start;fill:none;stroke:#000000;stroke-width:2.0760498;stroke-linecap:butt;stroke-linejoin:miter;stroke-miterlimit:10.43299961;stroke-opacity:1;stroke-dasharray:none;stroke-dashoffset:0"><path
           id="path4753"
           d="m 471.46,397.07 0.65,-0.68 3.44,1.04 c -0.25,2.69 -0.41,5.33 -0.41,8.02 l 0.36,0.41 v 1.64 l -0.36,0.34 v 11.56 c 0,4.53 1.46,7.97 5.54,7.97 4.09,0 4.84,-5.97 4.84,-7.37 0,-3.29 -0.75,-6.97 -3,-9.27 -1.89,-1.94 -4.33,-3.14 -7.02,-3.23 h 0 v -1.64 c 4.04,0.54 7.86,1.93 10.75,4.82 2.46,2.44 3.39,5.88 3.39,9.32 0,4.78 -2.48,9.31 -8.01,9.31 -2.09,0 -4.64,-0.55 -6.78,-2.39 -2.89,-2.49 -3.28,-5.72 -3.28,-8.77 v -10.2 l -0.36,-0.36 c -0.94,0 -2.28,0.45 -4.13,2.3 -2.39,2.34 -3.04,6.28 -3.04,9.61 0,4.04 1.54,6.93 5.73,8.87 l -0.59,1.09 c -4.94,-1.43 -9.13,-5.57 -9.13,-10.85 0,-3.44 0.91,-6.43 3.14,-9.02 2.6,-2.98 5.08,-3.48 8.02,-3.8 l 0.36,-0.34 z"
           inkscape:connector-curvature="0"
           style="fill:#000000;stroke-width:0" /></g>    </g>
    <path
       style="fill:none;stroke:#000000;stroke-width:1px;stroke-linecap:butt;stroke-linejoin:miter;stroke-opacity:1;marker-end:url(#Arrow1Mend)"
       d="m 184.82465,187.31918 0,-9.55565 0,-9.00435"
       id="path5098"
       inkscape:connector-curvature="0" />
    <g
       transform="matrix(0.37993835,0,0,0.37993835,54.430756,46.516276)"
       id="g5432">
      <g
         style="font-style:normal;font-variant:normal;font-weight:normal;font-stretch:normal;letter-spacing:normal;word-spacing:normal;text-anchor:start;fill:none;stroke:#000000;stroke-width:2.63200593;stroke-linecap:butt;stroke-linejoin:miter;stroke-miterlimit:10.43299961;stroke-opacity:1;stroke-dasharray:none;stroke-dashoffset:0"
         id="g5434"
         transform="matrix(1.0629921,0,0,-1.0629921,-186.02362,789.27165)"
         xml:space="preserve"
         stroke-miterlimit="10.433"
         font-style="normal"
         font-variant="normal"
         font-weight="normal"
         font-stretch="normal"
         font-size-adjust="none"
         letter-spacing="normal"
         word-spacing="normal"><path
           style="fill:#000000;stroke-width:0"
           inkscape:connector-curvature="0"
           d="m 476.39,399.42 0.31,0.38 0.31,0.4 0.31,0.41 0.31,0.42 0.3,0.43 0.3,0.45 0.29,0.45 0.27,0.45 0.25,0.46 0.12,0.23 0.11,0.23 0.11,0.24 0.1,0.23 0.09,0.23 0.08,0.23 0.08,0.23 0.06,0.24 0.06,0.23 0.05,0.23 0.04,0.23 0.03,0.22 0.01,0.23 0.01,0.23 c 0,1.79 -1.95,2.34 -3.99,2.34 -1.2,0 -3.04,-0.3 -5.04,-0.3 -5.17,0 -7.42,3.99 -7.42,8.13 0,9.01 7.37,18.78 15.09,21.22 v 0.95 c -1.69,-0.25 -3.13,-0.41 -4.42,-0.41 -2.75,0 -4.85,0.6 -7.24,2.19 -0.34,0.2 -0.29,0.2 -0.39,0.2 -0.11,0 -0.15,0 -0.25,-0.04 l -1.39,-1.75 c -0.11,-0.1 -0.11,-0.14 -0.11,-0.19 0.91,-0.86 2.21,-1.16 3.44,-1.36 l 4.53,-0.39 0.06,-0.34 c -6.48,-5.44 -13.15,-13.96 -13.15,-21.88 0,-4.64 1.89,-9.17 8.06,-9.17 1.3,0 4.69,0.45 6.73,0.45 1.1,0 2.54,-0.7 2.54,-1.89 0,-1.3 -0.94,-2.89 -1.69,-4.23 z"
           id="path5436" /></g>    </g>
    <path
       style="fill:none;stroke:#000000;stroke-width:1;stroke-linecap:butt;stroke-linejoin:miter;stroke-opacity:1;stroke-miterlimit:4;stroke-dasharray:1,2;stroke-dashoffset:0"
       d="m 339.82431,142.36133 -91.33178,0 c -30.05364,0.10406 -40.04264,-9.3436 -47.49253,-20"
       id="path3197"
       inkscape:connector-curvature="0"
       sodipodi:nodetypes="ccc" />
    <path
       inkscape:connector-curvature="0"
       id="path4399"
       d="m 190,167.36218 0,-33.99209 0,-9.71202"
       style="fill:none;stroke:#000000;stroke-width:1px;stroke-linecap:butt;stroke-linejoin:miter;stroke-opacity:1;marker-end:url(#Arrow1Mend)" />
    <g
       id="g5052"
       transform="matrix(0.48802933,0,0,0.48802933,25.50836,-25.41661)">
      <g
         word-spacing="normal"
         letter-spacing="normal"
         font-size-adjust="none"
         font-stretch="normal"
         font-weight="normal"
         font-variant="normal"
         font-style="normal"
         stroke-miterlimit="10.433"
         xml:space="preserve"
         transform="matrix(1.0629921,0,0,-1.0629921,-186.02362,789.27165)"
         id="g5054"
         style="font-style:normal;font-variant:normal;font-weight:normal;font-stretch:normal;letter-spacing:normal;word-spacing:normal;text-anchor:start;fill:none;stroke:#000000;stroke-width:2.04905725;stroke-linecap:butt;stroke-linejoin:miter;stroke-miterlimit:10.43299961;stroke-opacity:1;stroke-dasharray:none;stroke-dashoffset:0"><path
           id="path5056"
           d="m 484.57,426.28 0.02,0.02 0.03,0.03 0.02,0.02 0.02,0.02 0.02,0.03 0.03,0.02 0.02,0.02 0.02,0.02 0.02,0.02 0.01,0.02 0.02,0.02 0.02,0.02 0.02,0.02 0.01,0.02 0.02,0.01 0.01,0.02 0.02,0.02 0.01,0.01 0.01,0.02 0.02,0.01 0.02,0.03 0.02,0.03 0.02,0.02 0.02,0.03 0.01,0.02 0.01,0.02 0.02,0.02 0.01,0.02 0.01,0.02 0,0.02 0.01,0.01 0.01,0.02 0,0.02 0,0.01 0.01,0.02 0,0.01 0,0.03 0,0.03 0,0.02 c 0,0.3 -0.2,0.6 -0.59,0.6 -0.3,0 -0.5,-0.25 -0.8,-0.6 l -11.4,-12.7 c -2,6.33 -2.41,7.58 -3.55,10.22 -0.55,1.14 -1.64,3.62 -6.03,3.62 -2.89,0 -4.17,-2.57 -4.17,-3.28 0,-0.04 0,-0.5 0.59,-0.5 0.44,0 0.55,0.3 0.64,0.55 0.75,1.94 2.34,2.14 2.64,2.14 1.5,0 3,-3.78 3.85,-5.97 1.59,-3.94 3.18,-9.72 3.18,-9.87 0,-0.05 0,-0.14 -0.4,-0.55 l -11.46,-12.8 c -0.54,-0.54 -0.54,-0.65 -0.54,-0.79 0,-0.3 0.29,-0.61 0.59,-0.61 0.34,0 0.59,0.36 0.8,0.54 l 11.4,12.82 c 1.6,-5.19 2.21,-7.13 3.39,-9.93 0.66,-1.48 1.75,-3.98 6.19,-3.98 2.88,0 4.24,2.59 4.24,3.25 0,0.25 -0.11,0.55 -0.61,0.55 -0.5,0 -0.55,-0.21 -0.69,-0.71 -0.45,-1.18 -1.7,-2 -2.64,-2 -2.55,0 -5.94,12.07 -7.03,15.91 z"
           inkscape:connector-curvature="0"
           style="fill:#000000;stroke-width:0" /></g>    </g>
  </g>
</svg>
